<?xml version="1.0" standalone="no"?>
<!DOCTYPE svg PUBLIC "-//W3C//DTD SVG 20010904//EN"
 "http://www.w3.org/TR/2001/REC-SVG-20010904/DTD/svg10.dtd">
<svg version="1.0" xmlns="http://www.w3.org/2000/svg"
 width="626.000000pt" height="599.000000pt" viewBox="0 0 626.000000 599.000000"
 preserveAspectRatio="xMidYMid meet">

<g transform="translate(0.000000,599.000000) scale(0.100000,-0.100000)"
fill="#000000" stroke="none">
<path d="M3279 5976 c-107 -29 -205 -117 -260 -235 -18 -36 -33 -68 -35 -70
-1 -1 -20 11 -41 28 -130 104 -351 84 -503 -46 -22 -19 -53 -62 -71 -98 -17
-36 -33 -65 -34 -65 -1 0 -27 11 -57 25 -175 80 -397 6 -496 -165 -14 -25 -27
-47 -29 -49 -1 -2 -29 10 -60 26 -99 52 -159 67 -263 67 -109 1 -153 -10 -230
-56 -71 -43 -125 -115 -152 -203 -11 -38 -22 -71 -23 -73 -2 -2 -26 8 -54 22
-208 106 -468 62 -636 -108 -83 -84 -120 -153 -138 -262 l-13 -76 -62 -25
c-71 -29 -98 -60 -111 -127 -10 -54 5 -1018 19 -1231 17 -251 24 -1273 11
-1510 -19 -337 -26 -937 -12 -1025 21 -130 26 -137 176 -198 72 -29 211 -82
310 -119 l180 -65 120 6 c206 10 455 48 738 113 86 20 159 34 162 32 2 -3 22
-73 45 -157 45 -171 50 -185 98 -265 22 -35 44 -60 58 -63 57 -14 262 44 574
163 107 41 317 116 465 168 149 51 428 150 620 220 193 70 458 164 590 210
132 46 337 122 455 168 343 136 1159 447 1170 447 5 0 19 9 30 20 32 32 26 93
-16 180 -94 195 -167 407 -309 898 -52 180 -108 367 -124 415 l-30 88 78 217
c43 119 102 273 130 342 78 187 179 447 316 815 68 182 131 348 141 370 17 40
174 442 220 563 62 163 27 358 -85 475 -65 69 -101 82 -226 82 -104 0 -114 -2
-178 -33 -107 -53 -197 -157 -221 -257 -4 -16 -54 -149 -111 -295 -121 -313
-213 -565 -341 -939 -52 -151 -96 -276 -98 -278 -2 -2 -16 31 -31 74 -45 130
-359 966 -440 1174 -95 247 -110 274 -149 293 -36 17 -297 93 -433 126 l-92
22 -84 83 c-144 142 -311 201 -458 161z m211 -83 c54 -19 136 -72 170 -109
l25 -27 -25 7 c-14 4 -57 9 -97 13 -65 5 -79 3 -150 -26 -43 -17 -140 -53
-215 -80 -114 -40 -138 -46 -138 -32 0 33 51 122 97 172 95 101 202 128 333
82z m2527 -189 c87 -54 133 -179 112 -301 -6 -34 -13 -63 -15 -63 -3 0 -30 13
-62 29 -31 15 -137 59 -235 96 -163 62 -177 70 -171 89 27 89 186 192 282 182
24 -2 63 -16 89 -32z m-3174 -28 c18 -7 49 -31 70 -53 l38 -39 -256 -88 c-206
-70 -259 -85 -271 -76 -43 36 27 160 120 215 85 50 232 70 299 41z m830 -38
c59 -12 107 -25 107 -28 0 -4 -37 -17 -82 -30 -65 -18 -445 -144 -504 -167
-10 -4 -81 96 -72 101 20 13 400 145 418 145 14 1 73 -9 133 -21z m366 -87
c41 -11 76 -23 79 -26 5 -5 4 -5 -78 -34 -30 -10 -62 -22 -71 -26 -13 -5 -20
4 -34 44 -18 54 -14 75 13 67 10 -3 50 -14 91 -25z m-176 -58 c10 -26 14 -50
10 -54 -9 -8 -605 -199 -622 -199 -5 0 -16 21 -24 48 -13 47 -13 47 12 59 26
12 518 177 556 186 44 11 51 7 68 -40z m-799 -38 c53 -82 53 -71 -6 -90 -29
-10 -142 -51 -251 -91 -109 -41 -202 -72 -206 -70 -4 3 -22 28 -39 56 -22 35
-28 52 -19 55 158 57 476 164 488 164 9 1 24 -10 33 -24z m-787 -21 c26 -16
49 -37 51 -46 4 -19 -14 -26 -291 -120 -172 -58 -188 -61 -203 -46 -48 48 60
186 184 233 24 10 66 14 124 12 76 -3 92 -7 135 -33z m2059 -74 c89 -220 247
-636 399 -1055 l168 -460 -62 -185 c-114 -336 -203 -585 -221 -615 -16 -27
-18 -68 -22 -451 -3 -404 -2 -423 16 -443 46 -50 118 -11 227 124 40 50 129
153 197 230 120 135 216 253 225 278 2 7 7 10 10 7 3 -3 51 -160 106 -350 140
-483 233 -755 313 -913 11 -22 17 -41 15 -43 -2 -3 -159 -63 -348 -135 -189
-71 -445 -170 -569 -219 -348 -137 -580 -223 -925 -340 -110 -37 -341 -120
-514 -184 -686 -255 -1380 -491 -1395 -475 -16 16 -188 604 -371 1269 -90 326
-128 447 -420 1330 -231 700 -465 1456 -465 1503 0 12 161 69 489 173 l133 43
-6 -42 c-4 -23 -20 -64 -35 -92 -27 -48 -30 -50 -74 -51 -87 -2 -137 -40 -137
-106 0 -81 88 -129 179 -97 41 14 65 60 56 105 -5 28 0 45 29 92 30 48 55 120
68 195 2 15 62 38 288 112 156 52 286 92 288 91 9 -10 -22 -89 -51 -133 -32
-47 -33 -48 -80 -45 -43 3 -50 1 -82 -31 -79 -79 -17 -189 98 -174 58 8 90 45
86 101 -3 33 4 52 33 96 37 58 68 135 68 173 0 12 4 27 8 32 4 6 88 38 187 71
99 34 224 78 279 98 l99 36 -6 -45 c-8 -55 -30 -100 -69 -142 -30 -31 -31 -31
-66 -16 -45 19 -92 10 -132 -23 -25 -21 -30 -33 -30 -69 0 -50 24 -85 74 -109
71 -34 131 -6 142 65 5 30 18 51 51 81 55 52 91 127 107 218 l12 72 89 34
c199 77 367 136 373 130 11 -12 -18 -100 -50 -148 -28 -45 -33 -48 -73 -48
-50 0 -99 -34 -109 -75 -15 -58 52 -135 116 -135 70 0 105 42 95 115 -6 40 -3
51 17 78 38 50 74 136 82 194 6 47 9 53 38 62 17 6 158 51 314 101 156 49 287
90 293 90 13 0 1 -62 -22 -116 -9 -23 -31 -57 -49 -78 -28 -31 -38 -36 -75
-36 -36 0 -48 -5 -69 -31 -31 -36 -33 -72 -7 -116 24 -38 66 -50 112 -30 46
19 61 40 61 84 0 28 8 47 30 72 46 52 89 152 95 220 l6 60 156 54 c86 30 160
53 165 53 4 -1 24 -40 42 -86z m1364 6 c0 -5 -70 -199 -156 -430 -203 -546
-355 -964 -437 -1201 -72 -209 -227 -685 -227 -696 0 -4 -4 -19 -10 -33 l-10
-26 -51 19 c-28 11 -53 22 -55 23 -2 2 22 76 52 164 31 87 132 382 224 654
265 780 462 1329 549 1532 l20 47 50 -22 c28 -11 51 -25 51 -31z m132 -37 c29
-11 54 -22 56 -24 4 -3 -82 -240 -288 -800 -146 -397 -423 -1162 -510 -1407
-34 -98 -68 -178 -74 -178 -20 1 -81 36 -80 46 9 64 244 763 408 1213 181 497
431 1171 433 1171 1 0 26 -9 55 -21z m-4349 -9 c65 -10 189 -60 230 -94 11 -8
17 -24 15 -36 -3 -20 -34 -33 -243 -105 -132 -45 -263 -91 -292 -102 l-52 -21
-22 24 c-18 20 -21 30 -15 70 18 136 119 241 253 264 27 4 50 8 53 9 3 0 36
-4 73 -9z m1666 -32 c27 -75 28 -74 -58 -103 -44 -14 -154 -55 -246 -90 l-166
-63 -20 45 c-11 26 -16 50 -12 54 6 5 343 133 453 172 29 10 41 7 49 -15z
m-659 -55 c17 -26 29 -51 27 -56 -1 -5 -29 -18 -61 -28 -69 -21 -80 -30 -71
-58 8 -26 52 -28 115 -6 23 8 48 15 54 15 13 0 46 -61 46 -84 0 -8 -56 -34
-142 -66 -115 -43 -396 -140 -404 -140 -1 0 -10 31 -19 70 -9 38 -35 104 -57
147 -21 43 -36 79 -31 81 43 17 491 170 501 171 7 1 26 -20 42 -46z m3535 15
c33 -16 44 -26 39 -38 -3 -8 -26 -67 -50 -130 -23 -63 -84 -221 -134 -350
-259 -666 -490 -1268 -596 -1550 -65 -173 -118 -316 -119 -317 -4 -7 -65 23
-65 32 0 21 278 789 855 2363 6 17 18 15 70 -10z m-4128 -228 c34 -56 70 -154
75 -204 l3 -29 -280 -93 c-154 -51 -288 -93 -297 -93 -10 -1 -21 12 -29 37
-18 57 -54 124 -94 177 -20 26 -33 51 -28 55 16 15 592 210 608 206 6 -1 24
-26 42 -56z m-1020 22 c32 -10 77 -31 101 -46 35 -22 43 -32 40 -53 -4 -31 0
-29 -343 -134 -126 -39 -267 -84 -314 -100 -46 -16 -87 -27 -89 -24 -11 10 30
132 60 178 108 169 336 244 545 179z m310 -238 c-1 -1 -52 -19 -112 -39 -61
-20 -231 -83 -380 -140 -421 -160 -424 -161 -473 -147 -23 7 -42 17 -42 21 0
16 258 110 520 190 146 44 308 95 360 114 86 31 97 33 113 19 9 -8 16 -16 14
-18z m83 -129 c51 -109 86 -85 -318 -218 -196 -65 -363 -118 -369 -117 -16 0
-185 69 -196 80 -5 4 11 15 35 24 23 8 142 52 263 96 384 141 525 200 525 218
1 25 26 -10 60 -83z m-1015 -288 l110 -42 7 -75 c9 -106 28 -853 28 -1117 0
-188 2 -224 16 -237 20 -20 29 -20 49 0 15 15 16 47 10 318 -6 305 -26 1047
-29 1056 -3 12 12 12 46 1 l36 -12 -5 -177 c-6 -191 6 -536 37 -1052 40 -663
100 -2560 81 -2560 -4 0 -55 18 -112 39 l-104 39 -6 88 c-4 49 -10 445 -14
879 -5 435 -12 800 -16 813 -9 24 -40 29 -57 9 -13 -15 1 -1708 14 -1741 8
-22 -3 -19 -112 26 -71 29 -72 30 -78 71 -3 23 -8 164 -12 312 -5 210 -2 339
12 580 23 384 23 995 -1 1520 -19 421 -32 1305 -19 1305 5 -1 59 -20 119 -43z
m500 -772 c47 -154 175 -557 285 -895 353 -1094 432 -1350 560 -1815 39 -143
74 -268 76 -277 3 -10 3 -18 1 -18 -2 0 -83 -18 -178 -40 -96 -21 -228 -48
-294 -59 -150 -25 -425 -54 -434 -46 -3 4 -9 264 -12 578 -4 315 -12 651 -18
747 -6 96 -18 324 -26 505 -9 182 -24 508 -35 725 -24 479 -34 935 -21 900 5
-14 48 -151 96 -305z m4182 -794 c70 -28 134 -55 142 -60 11 -7 -3 -28 -64
-95 -43 -47 -80 -86 -83 -86 -2 0 -13 11 -24 25 -26 34 -87 64 -138 69 -22 2
-43 6 -46 9 -3 3 -2 52 2 110 l7 105 38 -13 c20 -8 95 -36 166 -64z m-129
-235 c41 -21 75 -62 66 -78 -4 -7 -40 -51 -78 -97 l-71 -84 -3 123 c-1 68 0
130 2 137 7 17 50 17 84 -1z"/>
<path d="M4124 4466 c-3 -8 -4 -23 -2 -33 3 -16 19 -19 130 -26 136 -8 185 -2
202 27 9 13 7 20 -8 32 -29 21 -314 21 -322 0z"/>
<path d="M3290 4154 c-632 -266 -1261 -526 -1487 -614 -170 -66 -193 -84 -159
-118 14 -15 20 -14 68 3 154 54 1492 608 2072 857 87 38 108 57 87 82 -8 9
-21 16 -30 16 -9 -1 -257 -102 -551 -226z"/>
<path d="M4130 4241 c-38 -7 -51 -31 -30 -56 10 -12 42 -15 154 -14 156 1 189
7 194 32 8 41 -14 47 -152 46 -72 -1 -147 -4 -166 -8z"/>
<path d="M4205 4030 c-107 -9 -142 -17 -149 -36 -7 -18 2 -41 17 -46 12 -4
204 9 264 18 36 5 52 36 33 59 -13 16 -23 16 -165 5z"/>
<path d="M1092 3775 c-92 -89 -105 -107 -96 -122 23 -37 47 -26 147 67 96 91
123 133 96 151 -27 17 -42 8 -147 -96z"/>
<path d="M1190 3630 c-63 -65 -116 -125 -117 -132 -2 -7 1 -19 6 -27 18 -28
60 0 168 109 84 86 108 117 108 138 0 22 -5 27 -25 29 -20 2 -47 -20 -140
-117z"/>
<path d="M1323 3470 c-115 -104 -135 -132 -110 -157 12 -12 22 -14 36 -7 32
14 194 168 211 198 13 26 13 29 -5 42 -10 8 -22 14 -26 14 -4 0 -51 -40 -106
-90z"/>
<path d="M2590 3206 c-63 -24 -144 -56 -180 -71 -36 -15 -145 -58 -243 -96
-243 -93 -312 -136 -271 -170 19 -16 14 -18 341 117 139 57 297 119 350 139
178 65 199 79 172 111 -18 22 -45 17 -169 -30z"/>
<path d="M3920 3071 c-403 -155 -725 -290 -1050 -438 -233 -107 -719 -349
-742 -370 -10 -9 -18 -24 -18 -34 0 -41 38 -30 247 74 363 182 768 366 1163
529 261 108 648 258 666 258 8 0 23 9 34 20 16 16 18 25 10 40 -6 11 -21 20
-33 19 -12 0 -137 -44 -277 -98z"/>
<path d="M4115 2309 c-240 -118 -582 -268 -1340 -589 -198 -84 -368 -160 -378
-168 -24 -21 -18 -56 10 -60 11 -2 90 27 175 63 84 37 342 147 573 245 631
267 1120 492 1130 518 7 20 -13 52 -33 51 -9 0 -71 -27 -137 -60z"/>
<path d="M4972 1928 c-13 -16 -119 -353 -124 -392 -4 -35 23 -57 49 -40 10 6
31 58 51 120 93 301 94 307 66 318 -23 9 -30 8 -42 -6z"/>
<path d="M5200 1858 c-47 -115 -72 -189 -73 -223 -2 -38 0 -40 26 -40 27 0 31
6 68 100 22 57 38 118 39 143 0 38 -2 42 -25 42 -17 0 -29 -8 -35 -22z"/>
<path d="M5382 1818 c-11 -29 -36 -93 -56 -143 -19 -49 -35 -107 -36 -127 0
-34 3 -38 25 -38 31 0 43 22 106 199 50 142 51 161 4 161 -18 0 -26 -11 -43
-52z"/>
<path d="M3410 1338 c-140 -50 -390 -136 -555 -192 -288 -97 -300 -102 -303
-128 -2 -19 2 -28 16 -32 24 -8 237 61 752 241 212 74 390 142 397 150 17 22
-1 53 -30 52 -12 0 -137 -41 -277 -91z"/>
<path d="M253 3121 c-17 -18 -18 -29 -12 -93 4 -40 8 -147 9 -238 1 -91 5
-187 8 -215 6 -43 10 -50 31 -53 13 -2 27 2 32 9 10 17 0 456 -12 529 -12 71
-29 90 -56 61z"/>
<path d="M1064 1315 c-11 -29 26 -64 169 -160 141 -95 167 -105 181 -69 6 16
-9 54 -22 54 -4 0 -68 43 -141 95 -132 93 -175 112 -187 80z"/>
<path d="M1100 1051 c-17 -33 -12 -40 67 -92 87 -56 126 -62 131 -19 2 22 -9
32 -81 78 -46 28 -88 52 -95 52 -6 0 -16 -9 -22 -19z"/>
<path d="M900 951 c-11 -22 -5 -47 13 -54 7 -3 50 -35 97 -72 111 -88 154
-115 185 -115 38 0 42 27 9 62 -16 16 -77 63 -136 104 -59 41 -110 79 -113 84
-10 17 -44 11 -55 -9z"/>
</g>
</svg>
